<?xml version="1.0" encoding="UTF-8" standalone="no"?>
<!-- Generator: Adobe Illustrator 16.0.3, SVG Export Plug-In . SVG Version: 6.00 Build 0)  -->
<svg xmlns:rdf="http://www.w3.org/1999/02/22-rdf-syntax-ns#" xmlns="http://www.w3.org/2000/svg" enable-background="new 0 0 73.622 73.651" xml:space="preserve" height="73.651px" viewBox="0 0 73.622 73.651" width="73.622px" version="1.1" y="0px" x="0px" xmlns:cc="http://creativecommons.org/ns#" xmlns:xlink="http://www.w3.org/1999/xlink" xmlns:dc="http://purl.org/dc/elements/1.1/"><metadata><rdf:RDF><cc:Work rdf:about=""><dc:format>image/svg+xml</dc:format><dc:type rdf:resource="http://purl.org/dc/dcmitype/StillImage"/><dc:title/></cc:Work></rdf:RDF></metadata><path fill="#fbbf15" d="M70.131,51.529c-0.04-0.63-0.414-5.077-0.488-5.712-1.379-11.841-8.988-17.17-18.438-22.925,3.17,7.257,4.445,16.507,2.385,24.786-3.002,12.058-11.572,21.263-22.288,25.558,15.935,2.417,31.454-5.897,38.439-20.064-0.118,0.012,0.511-1.648,0.39-1.643z"/><linearGradient y2="8.374" gradientUnits="userSpaceOnUse" x2="51.419" gradientTransform="translate(-0.31208051,2.2152542e-7)" y1="53.208" x1="51.419"><stop stop-color="#5aa55d" offset="0"/><stop stop-color="#5aa55d" offset="1"/></linearGradient><path fill="#5aa55d" d="m73.206,32.32c-1.052-9.041-5.299-16.929-11.481-22.673,0.21,0.234,0.423,0.464,0.645,0.679-0.612-0.15-1.092-0.691-1.703-0.878-11.428-3.49-24.802,0.816-31.616,8.966,20.039-1.833,37.986,12.65,40.326,32.749,0.074,0.635,0.131,1.268,0.174,1.898,3.114-6.195,4.516-13.338,3.655-20.741z"/><path fill="#58c2eb" d="M43.854,0.665c-8.316-1.595-16.515-0.251-23.524,3.301,0.021,0.01,0.042,0.017,0.064,0.026-1.169,0.708-1.179,0.888-1.496,1.442-5.981,10.429-6.25,23.148-1.958,33.45,4.335-19.586,23.908-32.704,43.734-28.9,0.626,0.121,1.249,0.256,1.861,0.406-4.971-4.835-11.361-8.321-18.681-9.725z"/><linearGradient y2="52.125" gradientUnits="userSpaceOnUse" x2="10.032" y1="11.706" x1="33.368"><stop stop-color="#795e95" offset="0"/><stop stop-color="#795e95" offset="1"/></linearGradient><path fill="#786099" d="M0.527,42.881c0.176,0.733,0.477,1.979,0.911,2.447,8.108,8.752,20.233,12.891,30.826,10.764-17.313-10.4-23.199-32.79-13.104-50.391,0.316-0.554,0.647-1.097,0.988-1.627-6.188,3.129-11.563,8.04-15.27,14.505-4.402,7.675-5.728,16.272-4.367,24.367,0.006-0.022,0.01-0.043,0.016-0.065z"/><path fill="#ba2c1c" d="M53.59,47.678c0.078-0.313,0.15-0.623,0.22-0.936-15.088,13.518-38.285,12.487-52.105-2.431-0.433-0.469-0.854-0.946-1.259-1.43,1.141,6.839,4.225,13.436,9.29,18.902,5.949,6.421,13.658,10.238,21.696,11.398,10.654-4.316,19.168-13.494,22.158-25.503z"/></svg>
